<?xml version="1.0" encoding="UTF-8"?><svg id="Layer_1" xmlns="http://www.w3.org/2000/svg" viewBox="0 0 400 400"><defs><style>.cls-1{fill:#009178;}.cls-2{fill:#092047;}</style></defs><path class="cls-2" d="m283.94,321.82H108.99c-22.99,0-41.7-18.71-41.7-41.7v-106.93c0-13.25,6.39-25.84,17.09-33.66l87.47-63.96c14.72-10.77,34.51-10.77,49.23,0l87.47,63.96c10.7,7.82,17.09,20.41,17.09,33.66v106.93c0,22.99-18.71,41.7-41.7,41.7Zm-87.48-245.33c-6.76,0-13.53,2.11-19.3,6.33l-87.47,63.96c-8.39,6.14-13.4,16-13.4,26.4v106.93c0,18.03,14.67,32.7,32.7,32.7h174.95c18.03,0,32.7-14.67,32.7-32.7v-106.93c0-10.39-5.01-20.26-13.4-26.4l-87.47-63.96c-5.77-4.22-12.54-6.33-19.3-6.33Z"/><g><path class="cls-1" d="m202.17,277.57c-2.28-6.13-4.78-11.99-6.65-18.05-6.63-21.59-10.62-43.48-4.31-65.87,3.5-12.43,9.79-22.98,21.31-30.22,14.42-9.05,36.52-2.36,42.15,13.64,5.95,16.93,7.07,33.14,1.97,48.39-4.12,12.31-12.26,22.84-22.76,30.46-6.1,4.42-15.96,11.26-31.72,21.65Z"/><path class="cls-1" d="m202.45,277.56c.77-6.46,1.81-12.72,2.19-19.01,1.35-22.44.07-44.54-11.28-64.72-6.3-11.21-14.87-19.94-27.71-24.23-16.07-5.38-35.87,6.28-37.57,23.07-1.79,17.77.94,33.71,9.44,47.27,6.86,10.93,17.22,19.22,29.16,24.12,6.94,2.84,18.07,7.16,35.76,13.5Z"/><path class="cls-1" d="m204.66,258.55c1.24-20.19.3-40.11-8.24-58.64-.14.25-.3.54-.45.78-10.93,20.58-11.69,42.82-9.78,65.31.17,1.98.4,3.91.67,5.87,4.53,1.68,9.7,3.58,15.62,5.7.75-6.44,1.79-12.73,2.19-19.01h0Z"/></g></svg>