<?xml version="1.0" encoding="UTF-8"?><svg id="Layer_1" xmlns="http://www.w3.org/2000/svg" viewBox="0 0 400 400"><defs><style>.cls-1{fill:#009178;}.cls-2{fill:#092047;}</style></defs><path class="cls-2" d="m203.66,126.39c-2.49,0-4.5-2.01-4.5-4.5v-15.84c0-9.16-7.45-16.62-16.62-16.62s-16.62,7.45-16.62,16.62v15.84c0,2.49-2.01,4.5-4.5,4.5s-4.5-2.01-4.5-4.5v-15.84c0-14.13,11.49-25.62,25.62-25.62s25.62,11.49,25.62,25.62v15.84c0,2.49-2.01,4.5-4.5,4.5Z"/><path class="cls-2" d="m269.25,297.78H122.47c-1.22,0-2.39-.5-3.24-1.38-.85-.88-1.3-2.07-1.25-3.29l6.6-169.78c.09-2.42,2.08-4.33,4.5-4.33h131.56c2.4,0,4.37,1.88,4.49,4.27l8.62,169.78c.06,1.23-.38,2.44-1.23,3.33s-2.03,1.4-3.26,1.4Zm-142.1-9h137.36l-8.16-160.78h-122.96l-6.25,160.78Z"/><path class="cls-2" d="m122.47,297.78c-1.37,0-2.72-.62-3.61-1.8-1.49-1.99-1.09-4.81.9-6.3l40.88-30.63c1.99-1.49,4.81-1.08,6.3.9,1.49,1.99,1.09,4.81-.9,6.3l-40.88,30.63c-.81.61-1.76.9-2.69.9Z"/><path class="cls-1" d="m294.94,297.68h-119.15c-7.5,0-13.51-6.23-13.23-13.73l5.62-152.1c.26-7.12,6.11-12.75,13.23-12.75h106.19c7.06,0,12.88,5.55,13.22,12.6l7.34,152.1c.36,7.55-5.66,13.88-13.22,13.88Z"/><path class="cls-2" d="m254.85,126.39c-2.49,0-4.5-2.01-4.5-4.5v-15.84c0-9.16-7.45-16.62-16.62-16.62s-16.62,7.45-16.62,16.62v15.84c0,2.49-2.01,4.5-4.5,4.5s-4.5-2.01-4.5-4.5v-15.84c0-14.13,11.49-25.62,25.62-25.62s25.62,11.49,25.62,25.62v15.84c0,2.49-2.01,4.5-4.5,4.5Z"/></svg>