<?xml version="1.0" encoding="UTF-8"?><svg id="Layer_1" xmlns="http://www.w3.org/2000/svg" viewBox="0 0 400 400"><defs><style>.cls-1{fill:#009178;}.cls-2{fill:#fff;}.cls-3{fill:#ffd744;}.cls-4{fill:#afddf5;}</style></defs><g><path class="cls-3" d="m207.22,301.47c-2.73-14.03-6.05-27.57-7.92-41.3-6.62-48.92-7.44-97.55,14.12-143.6,11.96-25.57,29.29-46.09,56.71-57.6,34.32-14.4,79.62,7.9,86.06,44.41,6.82,38.63,3.47,73.98-12.95,105.07-13.25,25.08-34.56,44.91-59.91,57.62-14.73,7.36-38.43,18.62-76.12,35.41Z"/><path class="cls-4" d="m224.91,290.95c-1.05-14.17-1.42-28.05-3.23-41.71-6.47-48.71-18.46-95.61-51.24-134.17-18.2-21.41-40.23-36.57-69.57-40.42-36.72-4.84-74.35,28.45-70.97,65.2,3.59,38.88,16.09,71.94,40,97.49,19.29,20.6,44.97,34.05,72.64,39.58,16.08,3.2,41.77,7.81,82.37,14.02Z"/><path class="cls-1" d="m221.7,249.24c-5.78-43.84-16.11-86.19-42.18-122.38-.21.6-.41,1.28-.64,1.85-14.85,48.73-7.2,96.76,6.3,144.22,1.2,4.17,2.49,8.23,3.88,12.32,10.42,1.7,22.32,3.63,35.89,5.71-1.07-14.13-1.48-28.05-3.25-41.71v-.02Z"/></g><polygon class="cls-2" points="207.87 54.55 177.46 118.88 203.74 164.37 173.11 208.75 196.99 227.7 186.07 258.46 216.91 318.97 201.45 256.77 213.07 229 189.6 200.46 222.62 161.8 192.08 113.62 207.87 54.55"/></svg>