<?xml version="1.0" encoding="UTF-8"?><svg id="Layer_1" xmlns="http://www.w3.org/2000/svg" viewBox="0 0 400 400"><defs><style>.cls-1{fill:#eaecf0;}.cls-2{fill:#aedcf4;}.cls-3{fill:#092047;}.cls-4{stroke-width:2px;}.cls-4,.cls-5{fill:none;stroke:#092047;stroke-linecap:round;stroke-linejoin:round;}.cls-5{stroke-width:9px;}</style></defs><rect class="cls-1" x="43.2" y="126.65" width="76.39" height="81.03"/><path class="cls-5" d="m269.45,103.24s36.92-18.53,45.48-2.56c11.8,22.03-39.81,21.91-16.61,62.68,15.47,27.18,62.21-12.46,74.48,22.34,11.09,31.48-58.11,59.05-60.16,139.28"/><path class="cls-2" d="m240.15,86.22h0c22.61,0,40.97,18.36,40.97,40.97v20.77c0,1.88-1.52,3.4-3.4,3.4h-75.14c-1.88,0-3.4-1.52-3.4-3.4v-20.77c0-22.61,18.36-40.97,40.97-40.97Z" transform="translate(277.02 -146.59) rotate(71.59)"/><rect class="cls-3" x="157.69" y="125.2" width="102.81" height="6.79" rx="3.4" ry="3.4" transform="translate(265.08 -110.41) rotate(71.59)"/><rect class="cls-3" x="182.76" y="92.85" width="6.65" height="40.73" rx="3.33" ry="3.33" transform="translate(234.75 -99.1) rotate(71.59)"/><rect class="cls-3" x="197.13" y="136.01" width="6.65" height="40.73" rx="3.33" ry="3.33" transform="translate(285.52 -83.2) rotate(71.59)"/><rect class="cls-3" x="58.26" y="139.9" width="4.96" height="27.27"/><rect class="cls-3" x="99.36" y="139.54" width="4.96" height="27.27"/><path class="cls-3" d="m81.4,174.7h0c4.89,0,8.87,3.97,8.87,8.87v8.87h-17.73v-8.87c0-4.89,3.97-8.87,8.87-8.87Z"/><line class="cls-4" x1="135.1" y1="97.15" x2="132.06" y2="75.46"/><line class="cls-4" x1="154.81" y1="99.89" x2="163.94" y2="85.41"/><line class="cls-4" x1="101.84" y1="97.96" x2="118.47" y2="106.17"/><line class="cls-4" x1="160.8" y1="224.76" x2="163.84" y2="246.45"/><line class="cls-4" x1="141.09" y1="222.02" x2="131.96" y2="236.5"/><line class="cls-4" x1="194.06" y1="223.95" x2="177.43" y2="215.73"/></svg>