<?xml version="1.0" encoding="UTF-8"?><svg id="Layer_1" xmlns="http://www.w3.org/2000/svg" viewBox="0 0 400 400"><defs><style>.cls-1{fill:#fcf8f0;}.cls-2{fill:#092047;}</style></defs><rect class="cls-1" x="133.91" y="169.31" width="130.91" height="36.55"/><path class="cls-2" d="m113.31,238.79h-53.92c-1.61,0-3.09-.86-3.9-2.25l-26.96-46.7c-.8-1.39-.8-3.11,0-4.5l26.96-46.7c.8-1.39,2.29-2.25,3.9-2.25h53.92c1.61,0,3.09.86,3.9,2.25l26.96,46.7c.8,1.39.8,3.11,0,4.5l-26.96,46.7c-.8,1.39-2.29,2.25-3.9,2.25Zm-51.33-9h48.73l24.36-42.2-24.36-42.2h-48.73l-24.36,42.2,24.36,42.2Z"/><path class="cls-2" d="m340.62,238.6h-53.92c-1.61,0-3.09-.86-3.9-2.25l-26.96-46.7c-.8-1.39-.8-3.11,0-4.5l26.96-46.7c.8-1.39,2.29-2.25,3.9-2.25h53.92c1.61,0,3.09.86,3.9,2.25l26.96,46.7c.8,1.39.8,3.11,0,4.5l-26.96,46.7c-.8,1.39-2.29,2.25-3.9,2.25Zm-51.33-9h48.73l24.36-42.2-24.36-42.2h-48.73l-24.36,42.2,24.36,42.2Z"/></svg>