<?xml version="1.0" encoding="UTF-8"?><svg id="Layer_1" xmlns="http://www.w3.org/2000/svg" viewBox="0 0 400 400"><defs><style>.cls-1{fill:#fcf8f0;}.cls-2{fill:#092047;}.cls-3{fill:#072148;}</style></defs><path class="cls-2" d="m164.7,310.6c-48.42,0-65.14-57.48-73.51-100.71-4.13-21.34.07-40.36,12.15-55.01,13.5-16.36,35.86-25.74,61.37-25.74,10.79,0,21.53,2.34,31.46,6.81.53-11.22,3.55-31.55,18.15-38.5,2.24-1.07,4.93-.12,6,2.13,1.07,2.24.12,4.93-2.13,6-12.16,5.79-13.54,28.99-13.05,37.44.1,1.65-.72,3.22-2.12,4.09-1.4.87-3.17.9-4.61.08-10.48-6-21.82-9.05-33.69-9.05-22.81,0-42.64,8.19-54.42,22.47-10.31,12.5-13.86,28.95-10.26,47.57,12.34,63.73,32.89,93.42,64.68,93.42,14.84,0,29.14-4.88,41.36-14.11,1.98-1.5,4.8-1.11,6.3.88,1.5,1.98,1.1,4.81-.88,6.3-13.79,10.42-29.97,15.93-46.78,15.93Z"/><path class="cls-1" d="m197.49,203.81c0,47.62,2.47,102.29,45.61,102.29s60.04-50.31,69.1-97.06c9.13-47.18-25.95-75.39-69.1-75.39s-45.61,22.54-45.61,70.16Z"/><ellipse class="cls-3" cx="175.58" cy="217.33" rx="6.51" ry="11.11"/></svg>