<?xml version="1.0" encoding="UTF-8"?><svg id="Layer_1" xmlns="http://www.w3.org/2000/svg" viewBox="0 0 400 400"><defs><style>.cls-1{fill:#009178;}.cls-2{fill:#092047;}</style></defs><path class="cls-1" d="m174.86,146.58h35.6v173.38c0,9.82-7.98,17.8-17.8,17.8h0c-9.82,0-17.8-7.98-17.8-17.8v-173.38h0Z"/><path class="cls-2" d="m223.54,147.02h-62.28c-2.49,0-4.5-2.01-4.5-4.5v-45.77c0-2.49,2.01-4.5,4.5-4.5h62.28c2.49,0,4.5,2.01,4.5,4.5v45.77c0,2.49-2.01,4.5-4.5,4.5Zm-57.78-9h53.28v-36.77h-53.28v36.77Z"/><path class="cls-2" d="m120.22,147.02c-.67,0-1.36-.15-2-.47-2.22-1.11-3.13-3.81-2.02-6.04l22.82-45.77c.76-1.53,2.32-2.49,4.03-2.49h78.93c2.49,0,4.5,2.01,4.5,4.5s-2.01,4.5-4.5,4.5h-76.15l-21.58,43.28c-.79,1.58-2.38,2.49-4.03,2.49Z"/><path class="cls-2" d="m238.11,135.57h-14.57c-2.49,0-4.5-2.01-4.5-4.5v-22.89c0-2.49,2.01-4.5,4.5-4.5h14.57c2.49,0,4.5,2.01,4.5,4.5v22.89c0,2.49-2.01,4.5-4.5,4.5Zm-10.07-9h5.57v-13.89h-5.57v13.89Z"/><path class="cls-2" d="m260.63,144.92h-22.53c-2.49,0-4.5-2.01-4.5-4.5v-41.59c0-2.49,2.01-4.5,4.5-4.5h22.53c2.49,0,4.5,2.01,4.5,4.5v41.59c0,2.49-2.01,4.5-4.5,4.5Zm-18.03-9h13.53v-32.59h-13.53v32.59Z"/></svg>