<?xml version="1.0" encoding="UTF-8"?><svg id="Layer_1" xmlns="http://www.w3.org/2000/svg" viewBox="0 0 400 400"><defs><style>.cls-1{fill:#aedcf4;}.cls-2{fill:none;stroke:#092047;stroke-linecap:round;stroke-linejoin:round;stroke-width:9px;}</style></defs><path class="cls-1" d="m279.01,181.12c-30.86,0-57.66-16.12-71.18-39.77-14.02,22.03-39.84,36.82-69.4,36.82-9.17,0-17.97-1.44-26.19-4.06-1.61,7.5-2.46,15.31-2.46,23.34,0,56.65,42.37,102.57,94.63,102.57s94.63-45.92,94.63-102.57c0-6.26.26-11.99.18-18.91-5.95,1.3-13.83,2.59-20.21,2.59Z"/><ellipse class="cls-1" cx="114.9" cy="206.77" rx="23.66" ry="25.64"/><path class="cls-2" d="m300.4,182.03c11.45,0,20.73,10.06,20.73,22.47s-10.72,22.47-22.17,22.47"/><path class="cls-2" d="m112.24,174.11v-30.34c0-37.43,30.35-67.78,67.78-67.78h51.24c37.43,0,67.78,30.35,67.78,67.78l-.06,74c0,11.78-15.44,9.47-22.76,18.7-8.77,11.06-24.41,21.52-52.28,22.07"/><circle class="cls-2" cx="210.32" cy="256.67" r="13.1"/></svg>