<?xml version="1.0" encoding="UTF-8"?><svg id="Layer_1" xmlns="http://www.w3.org/2000/svg" viewBox="0 0 400 400"><defs><style>.cls-1{fill:#aedcf4;}.cls-2{fill:none;stroke:#092047;stroke-linecap:round;stroke-linejoin:round;stroke-width:9px;}</style></defs><path class="cls-2" d="m171.26,258.61h71.44v46.01c0,14.04-11.4,25.44-25.44,25.44h-20.57c-14.04,0-25.44-11.4-25.44-25.44v-46.01h0Z"/><path class="cls-1" d="m295.82,165.53c0-50.97-41.32-92.28-92.28-92.28s-92.28,41.32-92.28,92.28c0,36.87,21.63,68.69,52.89,83.47v6.19c0,14.05,11.39,25.44,25.44,25.44h33.47c14.05,0,25.44-11.39,25.44-25.44v-9.05c28.24-15.78,47.33-45.96,47.33-80.61Z"/><line class="cls-2" x1="70.2" y1="169.66" x2="98.48" y2="169.66"/><line class="cls-2" x1="83.27" y1="253.97" x2="103.26" y2="233.97"/><line class="cls-2" x1="312.02" y1="169.66" x2="340.3" y2="169.66"/><line class="cls-2" x1="299.13" y1="233.97" x2="319.13" y2="253.97"/><line class="cls-2" x1="103.26" y1="95.35" x2="83.27" y2="75.35"/><line class="cls-2" x1="299.13" y1="95.35" x2="319.13" y2="75.35"/></svg>