<?xml version="1.0" encoding="UTF-8"?><svg id="Layer_1" xmlns="http://www.w3.org/2000/svg" viewBox="0 0 400 400"><defs><style>.cls-1{fill:#fff;}.cls-2{fill:#fcf8f0;}.cls-3{fill:#092047;}</style></defs><path class="cls-2" d="m56.26,185.99h276.54v43.69c0,22.8-18.51,41.31-41.31,41.31H97.57c-22.8,0-41.31-18.51-41.31-41.31v-43.69h0Z"/><path class="cls-3" d="m328.35,191.94c-1.58,0-3.11-.83-3.93-2.3l-35.37-63.21c-4.5-8.05-13.03-13.05-22.25-13.05H90.86c-14.06,0-25.5,11.44-25.5,25.5v47.82c0,2.49-2.01,4.5-4.5,4.5s-4.5-2.01-4.5-4.5v-47.82c0-19.02,15.48-34.5,34.5-34.5h175.93c12.48,0,24.01,6.76,30.11,17.65l35.37,63.21c1.21,2.17.44,4.91-1.73,6.12-.7.39-1.45.57-2.19.57Z"/><path class="cls-3" d="m138.49,191.94c-2.49,0-4.5-2.01-4.5-4.5v-78.56c0-2.49,2.01-4.5,4.5-4.5s4.5,2.01,4.5,4.5v78.56c0,2.49-2.01,4.5-4.5,4.5Z"/><path class="cls-3" d="m224.99,191.94c-2.49,0-4.5-2.01-4.5-4.5v-78.56c0-2.49,2.01-4.5,4.5-4.5s4.5,2.01,4.5,4.5v78.56c0,2.49-2.01,4.5-4.5,4.5Z"/><g><circle class="cls-1" cx="109.94" cy="278.2" r="27.85"/><path class="cls-3" d="m109.94,310.55c-17.84,0-32.35-14.51-32.35-32.35s14.51-32.35,32.35-32.35,32.35,14.51,32.35,32.35-14.51,32.35-32.35,32.35Zm0-55.7c-12.88,0-23.35,10.48-23.35,23.35s10.48,23.35,23.35,23.35,23.35-10.47,23.35-23.35-10.48-23.35-23.35-23.35Z"/></g><g><circle class="cls-1" cx="259.69" cy="278.2" r="27.85"/><path class="cls-3" d="m259.69,310.55c-17.84,0-32.35-14.51-32.35-32.35s14.51-32.35,32.35-32.35,32.35,14.51,32.35,32.35-14.51,32.35-32.35,32.35Zm0-55.7c-12.88,0-23.35,10.48-23.35,23.35s10.47,23.35,23.35,23.35,23.35-10.47,23.35-23.35-10.48-23.35-23.35-23.35Z"/></g></svg>